<svg id="Capa_1" enable-background="new 0 0 512 512" height="512" viewBox="0 0 512 512" width="512" xmlns="http://www.w3.org/2000/svg"><g><path d="m24.5 439.068v20.288c0 5.523 4.477 10 10 10h443c5.523 0 10-4.477 10-10v-20.288z" fill="#7ca1b1"/><g><path d="m79 459.356v-19.288h-54.5v19.288c0 5.523 4.477 10 10 10h54.5c-5.523 0-10-4.477-10-10z" fill="#678d98"/></g><path d="m253.494 322.136c-10.023 9.9-23.793 16.017-38.994 16.017-14.371 0-27.465-5.462-37.322-14.423v116.338h157.644v-117.932z" fill="#fed2a4"/><path d="m177.178 323.73v116.338h31.178v-102.261c-11.942-1.316-22.746-6.412-31.178-14.077z" fill="#ffbd86"/><g><path d="m159 282.653c0-16.281 7.011-30.925 18.178-41.077v-86.338c0-5.523-4.477-10-10-10h-149.678c-5.523 0-10 4.477-10 10v274.831c0 5.523 4.477 10 10 10h159.678v-116.339c-11.167-10.152-18.178-24.796-18.178-41.077z" fill="#fd4755"/><g><path d="m39 430.068v-274.83c0-5.523 4.477-10 10-10h-31.5c-5.523 0-10 4.477-10 10v274.831c0 5.523 4.477 10 10 10h31.5c-5.523-.001-10-4.478-10-10.001z" fill="#fb2b3a"/></g><g><g><circle cx="92.339" cy="231.432" fill="#fff" r="28.28"/></g><g><path d="m85 231.432c0-11.918 7.376-22.107 17.809-26.269-3.239-1.292-6.77-2.01-10.47-2.01-15.618 0-28.28 12.661-28.28 28.28 0 15.618 12.661 28.28 28.28 28.28 3.7 0 7.231-.718 10.47-2.01-10.433-4.164-17.809-14.352-17.809-26.271z" fill="#deecf1"/></g><g><circle cx="92.339" cy="342.293" fill="#7ca1b1" r="50"/></g><g><circle cx="92.339" cy="342.292" fill="#fff" r="25"/></g><g><path d="m88 342.292c0-10.102 6.026-18.817 14.669-22.757-3.151-1.436-6.647-2.243-10.331-2.243-13.785 0-25 11.215-25 25s11.215 25 25 25c3.683 0 7.179-.807 10.331-2.243-8.643-3.939-14.669-12.655-14.669-22.757z" fill="#deecf1"/></g></g><path d="m494.5 145.238h-117.768c.164 1.949.268 3.915.268 5.906 0 28.683-17.379 53.302-42.178 63.917v225.008h159.678c5.523 0 10-4.477 10-10v-274.831c0-5.523-4.477-10-10-10z" fill="#fd4755"/><path d="m334.822 215.06v225.008h31.178v-251.422c-7.479 11.642-18.325 20.913-31.178 26.414z" fill="#fb2b3a"/><g><g><circle cx="419.661" cy="231.432" fill="#fff" r="28.28"/></g><g><path d="m412 231.432c0-11.979 7.452-22.211 17.97-26.333-3.195-1.252-6.67-1.947-10.309-1.947-15.619 0-28.28 12.661-28.28 28.28 0 15.618 12.661 28.28 28.28 28.28 3.639 0 7.114-.695 10.309-1.947-10.518-4.121-17.97-14.353-17.97-26.333z" fill="#deecf1"/></g><g><circle cx="419.661" cy="342.293" fill="#7ca1b1" r="50"/></g><g><circle cx="419.661" cy="342.292" fill="#fff" r="25"/></g><g><path d="m415 342.292c0-10.165 6.101-18.926 14.831-22.83-3.109-1.391-6.549-2.17-10.169-2.17-13.785 0-25 11.215-25 25s11.215 25 25 25c3.62 0 7.06-.78 10.169-2.17-8.73-3.904-14.831-12.665-14.831-22.83z" fill="#deecf1"/></g></g></g><g><g><circle cx="307.5" cy="151.144" fill="#46cc8d" r="69.5"/></g><g><path d="m268 151.144c0-33.231 23.33-60.999 54.5-67.859-4.833-1.064-9.848-1.641-15-1.641-38.384 0-69.5 31.116-69.5 69.5s31.116 69.5 69.5 69.5c5.152 0 10.167-.578 15-1.641-31.17-6.86-54.5-34.628-54.5-67.859z" fill="#00c27a"/></g><g><g><circle cx="285.551" cy="170.808" fill="#fedf30" r="12.268"/></g><g><g><circle cx="328.509" cy="166.375" fill="#fedf30" r="12.268"/></g></g></g></g><g><g><circle cx="214.5" cy="282.653" fill="#fac600" r="55.5"/></g><g><path d="m189 282.653c0-25.452 17.139-46.886 40.5-53.432-4.773-1.337-9.8-2.068-15-2.068-30.652 0-55.5 24.848-55.5 55.5s24.848 55.5 55.5 55.5c5.2 0 10.227-.731 15-2.068-23.361-6.546-40.5-27.981-40.5-53.432z" fill="#e8b800"/></g><g><circle cx="206.268" cy="300.345" fill="#fedf30" r="12.268"/></g></g><g><path d="m92.339 267.212c19.729 0 35.779-16.051 35.779-35.779 0-19.729-16.051-35.78-35.779-35.78s-35.779 16.051-35.779 35.78c0 19.728 16.05 35.779 35.779 35.779zm0-56.56c11.458 0 20.779 9.322 20.779 20.78s-9.321 20.779-20.779 20.779-20.779-9.321-20.779-20.779 9.321-20.78 20.779-20.78z"/><path d="m149.839 342.293c0-31.706-25.794-57.5-57.5-57.5s-57.5 25.794-57.5 57.5 25.794 57.5 57.5 57.5 57.5-25.794 57.5-57.5zm-57.5 42.5c-23.435 0-42.5-19.065-42.5-42.5s19.065-42.5 42.5-42.5 42.5 19.065 42.5 42.5-19.066 42.5-42.5 42.5z"/><path d="m92.339 309.792c-17.921 0-32.5 14.579-32.5 32.5s14.579 32.5 32.5 32.5 32.5-14.579 32.5-32.5-14.579-32.5-32.5-32.5zm0 50c-9.649 0-17.5-7.851-17.5-17.5s7.851-17.5 17.5-17.5 17.5 7.851 17.5 17.5-7.851 17.5-17.5 17.5z"/><path d="m504.5 219.5c4.143 0 7.5-3.357 7.5-7.5v-56.763c0-9.649-7.851-17.5-17.5-17.5h-111.192c-6.365-36.086-37.924-63.594-75.808-63.594-42.458 0-77 34.542-77 77s34.542 77 77 77c6.853 0 13.494-.912 19.822-2.6v89.092h-58.541c2.251-3.832 4.131-7.939 5.563-12.293 1.294-3.935-.847-8.173-4.782-9.468-3.932-1.293-8.173.848-9.468 4.782-6.49 19.735-24.813 32.995-45.595 32.995-26.468 0-48-21.532-48-48s21.532-48 48-48c20.651 0 38.938 13.154 45.506 32.732 1.317 3.929 5.569 6.044 9.495 4.726 3.928-1.316 6.043-5.568 4.726-9.495-8.619-25.697-32.621-42.963-59.727-42.963-10.783 0-20.939 2.727-29.822 7.521v-71.936c0-9.649-7.851-17.5-17.5-17.5h-149.677c-9.649 0-17.5 7.851-17.5 17.5v274.831c0 9.481 7.583 17.207 17 17.475v11.813c0 9.649 7.851 17.5 17.5 17.5h443c9.649 0 17.5-7.851 17.5-17.5v-11.813c9.417-.268 17-7.994 17-17.475v-183.067c0-4.143-3.357-7.5-7.5-7.5s-7.5 3.357-7.5 7.5v183.068c0 1.379-1.121 2.5-2.5 2.5h-152.178v-212.783c24.556-12.508 41.538-37.794 42.137-67.048h110.041c1.379 0 2.5 1.121 2.5 2.5v56.763c0 4.143 3.357 7.5 7.5 7.5zm-319.822 118.61c8.885 4.799 19.035 7.542 29.822 7.542 15.915 0 30.725-5.934 42-16.017h70.823v102.933h-142.645zm295.322 109.458v11.788c0 1.379-1.121 2.5-2.5 2.5h-443c-1.379 0-2.5-1.121-2.5-2.5v-11.788h70c4.143 0 7.5-3.357 7.5-7.5s-3.357-7.5-7.5-7.5h-84.5c-1.379 0-2.5-1.121-2.5-2.5v-274.831c0-1.379 1.121-2.5 2.5-2.5h149.678c1.379 0 2.5 1.121 2.5 2.5v83.198c-11.23 11.383-18.178 27.002-18.178 44.217 0 17.214 6.948 32.828 18.178 44.209v105.707h-32.678c-4.143 0-7.5 3.357-7.5 7.5s3.357 7.5 7.5 7.5zm-172.5-234.424c-34.187 0-62-27.813-62-62s27.813-62 62-62 62 27.813 62 62-27.813 62-62 62z"/><path d="m455.44 231.433c0-19.729-16.051-35.78-35.779-35.78s-35.779 16.051-35.779 35.78 16.051 35.779 35.779 35.779 35.779-16.051 35.779-35.779zm-56.558 0c0-11.458 9.321-20.78 20.779-20.78s20.779 9.322 20.779 20.78-9.321 20.779-20.779 20.779-20.779-9.321-20.779-20.779z"/><path d="m362.161 342.293c0 31.706 25.794 57.5 57.5 57.5s57.5-25.794 57.5-57.5-25.794-57.5-57.5-57.5-57.5 25.794-57.5 57.5zm57.5-42.5c23.435 0 42.5 19.065 42.5 42.5s-19.065 42.5-42.5 42.5-42.5-19.065-42.5-42.5 19.066-42.5 42.5-42.5z"/><path d="m419.661 374.792c17.921 0 32.5-14.579 32.5-32.5s-14.579-32.5-32.5-32.5-32.5 14.579-32.5 32.5 14.579 32.5 32.5 32.5zm0-50c9.649 0 17.5 7.851 17.5 17.5s-7.851 17.5-17.5 17.5-17.5-7.851-17.5-17.5 7.851-17.5 17.5-17.5z"/><path d="m337.271 112.704-37.993 3.921c-5.107.527-8.958 4.796-8.958 9.93v25.091c-1.53-.381-3.121-.606-4.768-.606-10.9 0-19.769 8.868-19.769 19.769 0 10.899 8.868 19.768 19.769 19.768 10.64 0 19.32-8.457 19.729-18.999.026-.253.039-.509.039-.768v-39.728l27.958-2.886v19.017c-1.53-.381-3.121-.606-4.768-.606-10.9 0-19.769 8.868-19.769 19.769 0 10.899 8.868 19.768 19.769 19.768 10.64 0 19.32-8.457 19.729-18.999.026-.253.039-.509.039-.768v-43.741c0-2.821-1.202-5.523-3.297-7.413-2.096-1.892-4.91-2.816-7.71-2.519zm-51.719 62.872c-2.629 0-4.769-2.139-4.769-4.768s2.14-4.769 4.769-4.769 4.768 2.14 4.768 4.769-2.139 4.768-4.768 4.768zm42.958-4.433c-2.629 0-4.769-2.139-4.769-4.768s2.14-4.769 4.769-4.769 4.768 2.14 4.768 4.769-2.139 4.768-4.768 4.768z"/><path d="m208 382.585h96c4.143 0 7.5-3.357 7.5-7.5s-3.357-7.5-7.5-7.5h-96c-4.143 0-7.5 3.357-7.5 7.5s3.357 7.5 7.5 7.5z"/><path d="m234.229 244.692-14.237 1.47c-5.105.527-8.956 4.797-8.956 9.93v25.091c-1.53-.381-3.121-.606-4.768-.606-10.9 0-19.769 8.868-19.769 19.768s8.868 19.769 19.769 19.769c10.64 0 19.32-8.457 19.729-19l.039-40.496 9.734-1.005c4.12-.425 7.115-4.11 6.689-8.23-.424-4.12-4.101-7.116-8.23-6.691zm-27.96 60.421c-2.629 0-4.769-2.14-4.769-4.769s2.14-4.768 4.769-4.768 4.768 2.139 4.768 4.768-2.14 4.769-4.768 4.769z"/><circle cx="209.025" cy="404.568" r="9.025"/><circle cx="235.5" cy="404.568" r="9.025"/><circle cx="301.975" cy="404.568" r="9.025"/><ellipse cx="31.975" cy="170.127" rx="9.025" ry="9.025" transform="matrix(.383 -.924 .924 .383 -137.439 134.563)"/><ellipse cx="480.025" cy="170.127" rx="9.025" ry="9.025" transform="matrix(.383 -.924 .924 .383 139.15 548.508)"/><path d="m162.727 90.369c1.389 2.406 3.91 3.751 6.502 3.751 1.272 0 2.563-.324 3.743-1.006l14.139-8.163v16.326c0 4.143 3.357 7.5 7.5 7.5s7.5-3.357 7.5-7.5v-16.326l14.14 8.163c1.182.682 2.471 1.006 3.743 1.006 2.592 0 5.113-1.345 6.502-3.751 2.071-3.587.842-8.174-2.745-10.245l-14.139-8.163 14.139-8.163c3.587-2.071 4.816-6.658 2.745-10.245-2.07-3.588-6.66-4.815-10.245-2.745l-14.14 8.163v-16.327c0-4.143-3.357-7.5-7.5-7.5s-7.5 3.357-7.5 7.5v16.326l-14.139-8.163c-3.589-2.071-8.175-.843-10.245 2.745-2.071 3.587-.842 8.174 2.745 10.245l14.139 8.163-14.139 8.163c-3.587 2.072-4.817 6.659-2.745 10.246z"/></g></g></svg>